<?xml version="1.0" encoding="UTF-8"?>
<svg id="katman_1" xmlns="http://www.w3.org/2000/svg" version="1.1" viewBox="0 0 64 64">
  <!-- Generator: Adobe Illustrator 30.7.0, SVG Export Plug-In . SVG Version: 2.1.4 Build 114)  -->
  <defs>
    <style>
      .st0 {
        fill: #d41c1f;
      }

      .st1 {
        fill: #3a393a;
      }

      .st2 {
        fill: #fcfcfc;
      }

      .st3 {
        display: none;
        fill: #fff;
      }
    </style>
  </defs>
  <rect class="st3" x="14.5" y="14.5" width="35" height="35"/>
  <g>
    <g>
      <path class="st1" d="M35.76,18.65l-18.18-.06-.03,10.93c0,.31.17.47.33.53.82.28.65-1.89,2.68-2.13.89-.11,1.97.34,2.28,1.32.2.63.1,1.58-.15,2.18-.38.89-1.38,1.23-2.19,1.19-.93-.04-1.65-.67-2.06-1.68-.94.15-1.7-.28-1.8-1.16v-10.99c-.01-.7.39-1.09,1.11-1.09l18.86.04.12,12.34,2.18.05-.08.87h-10.64c-.1-.34.01-.62.19-.9l7.38-.02v-11.41ZM22.28,30.27c0-.81-.66-1.47-1.47-1.47s-1.47.66-1.47,1.47.66,1.47,1.47,1.47,1.47-.66,1.47-1.47Z"/>
      <path class="st1" d="M44.68,25.04l-4.52.03c-.5,0-.92-.26-.91-.81l.03-2.86c0-.3.76-.34.76-.13l.12,2.83,3.9.02-1.2-3.02c-.24-.6-.74-.96-1.4-.97l-3.55-.06c-.24,0-.21-.78.08-.78l3.87-.02c.81,0,1.42.62,1.73,1.3l1.58,3.53c.18.39,1.4.57,1.45,1.11.15,1.74.19,3.4,0,5.12-.07.65-1.42.84-1.79.51-.18-.17-.1-.59.02-.67.15-.11.46-.18.92-.15v-4.21c0-.42-.59-.78-1.11-.78Z"/>
      <path class="st1" d="M44.09,30.29c0,1.31-1.06,2.38-2.38,2.38s-2.38-1.06-2.38-2.38,1.06-2.38,2.38-2.38,2.38,1.06,2.38,2.38ZM43.19,30.29c0-.82-.66-1.48-1.48-1.48s-1.48.66-1.48,1.48.66,1.48,1.48,1.48,1.48-.66,1.48-1.48Z"/>
      <path class="st1" d="M27.83,30.25c0,1.29-1.05,2.34-2.34,2.34s-2.34-1.05-2.34-2.34,1.05-2.34,2.34-2.34,2.34,1.05,2.34,2.34ZM26.89,30.25c0-.8-.65-1.45-1.45-1.45s-1.45.65-1.45,1.45.65,1.45,1.45,1.45,1.45-.65,1.45-1.45Z"/>
      <circle class="st2" cx="20.8" cy="30.27" r="1.47"/>
      <circle class="st2" cx="41.71" cy="30.29" r="1.48"/>
      <circle class="st2" cx="25.44" cy="30.25" r="1.45"/>
    </g>
    <g>
      <path class="st1" d="M48.68,33.95H15.57c-.13.61-.11,1.13-.01,1.76h9.42c.33,0,.51.13.57.37.04.18-.02.52-.37.52l-6.02.06.03,4.16,4.6.05c.23,0,.21.29.22.4,0,.17-.16.46-.44.46h-5.34s-.01-5.07-.01-5.07l-3.55-.09c-.12-1.18-.18-2.3.05-3.55h34.7c.36,1.11.22,2.32.09,3.48l-3.59.13-.04,5.09-5.04.02c-.29,0-.5-.16-.59-.31-.08-.13-.05-.58.19-.58l4.55-.04v-4.2s-5.94-.02-5.94-.02c-.26,0-.43-.23-.44-.36-.03-.23.14-.5.46-.5l9.61-.04v-1.76Z"/>
      <g>
        <path class="st0" d="M36.71,46.77c-.4-.23-.8-.49-.73-.94.65-.93,1.34-2.31,1.28-3.43l-.62-.45c-.08-.06.51-.37.53-.51.01-1.93-1.66-3.65-1.87-2.78-.03.14-.27.05-.31-.09-.03-.09-.03-.31.1-.58-1.47-1.16-3.92-1.38-5.49-.22.21.25.58.82.42.95-.36.27-.74-.17-.93-.71-1.01.87-1.78,2.05-1.95,3.43l.42.56-.37.55c-.14,1.22.47,2.38,1.24,3.25.11.21.06.49-.11.57-.22.11-.45.11-.67.06-1.66-2.16-2.15-4.96-.75-7.36,1.23-2.1,3.73-3.5,6.29-3,3.68.72,5.75,4.11,4.95,7.8l-1.41,2.91Z"/>
        <path class="st1" d="M35.97,45.83c-.07.45.33.7.73.94-.06.13.03.5-.34.5l-8.64.02c-.16-.28-.08-.67-.1-.87.22.05.45.04.67-.06.16-.08.22-.36.11-.57.26.29.48.58.96.57l2.46-.05c0-.65-.04-1.19.11-1.67.04-.1.47-.07.48.07l.21,1.58,2.49.05c.41,0,.63-.18.85-.5Z"/>
        <path class="st2" d="M35.97,45.83c-.22.32-.44.5-.85.5l-2.49-.05-.21-1.58c-.02-.14-.44-.17-.48-.07-.15.48-.1,1.02-.11,1.67l-2.46.05c-.48.01-.71-.28-.96-.57-.77-.87-1.38-2.02-1.24-3.25l.37-.55-.42-.56c.18-1.38.94-2.56,1.95-3.43.18.54.57.98.93.71.16-.14-.21-.7-.42-.95,1.57-1.15,4.03-.94,5.49.22-.13.27-.13.49-.1.58.04.13.27.22.31.09.21-.87,1.88.86,1.87,2.78-.02.14-.61.45-.53.51l.62.45c.06,1.12-.62,2.5-1.28,3.43ZM32.92,41.99c.19-.89,1.65-1.92.97-2.33-.17-.11-.39,0-.57.19l-1.55,1.74c-.28.31-.45.64-.32.97.13.35.52.46.89.39.39-.08.47-.41.58-.96Z"/>
        <path class="st1" d="M32.92,41.99c-.11.54-.19.88-.58.96-.37.07-.76-.03-.89-.39-.12-.33.04-.66.32-.97l1.55-1.74c.18-.2.4-.3.57-.19.68.42-.79,1.44-.97,2.33Z"/>
      </g>
    </g>
  </g>
</svg>